<mxfile host="app.diagrams.net" agent="Mozilla/5.0 (Windows NT 10.0; Win64; x64) AppleWebKit/537.36 (KHTML, like Gecko) Chrome/133.0.0.0 Safari/537.36 OPR/118.0.0.0" version="27.0.9">
  <diagram name="Página-1" id="s6yQc3L3I6lVZMIVEe93">
    <mxGraphModel dx="763" dy="728" grid="1" gridSize="10" guides="1" tooltips="1" connect="1" arrows="1" fold="1" page="1" pageScale="1" pageWidth="827" pageHeight="1169" math="0" shadow="0">
      <root>
        <mxCell id="0" />
        <mxCell id="1" parent="0" />
        <mxCell id="gghdeuGKYrQB2vMHr8Xe-7" value="Animal" style="rounded=1;whiteSpace=wrap;html=1;" parent="1" vertex="1">
          <mxGeometry x="25" y="290" width="120" height="60" as="geometry" />
        </mxCell>
        <mxCell id="gghdeuGKYrQB2vMHr8Xe-11" value="Agendamento" style="rounded=1;whiteSpace=wrap;html=1;" parent="1" vertex="1">
          <mxGeometry x="285" y="115" width="120" height="60" as="geometry" />
        </mxCell>
        <mxCell id="gghdeuGKYrQB2vMHr8Xe-16" value="movimentacao" style="rounded=1;whiteSpace=wrap;html=1;" parent="1" vertex="1">
          <mxGeometry x="795" y="660" width="120" height="60" as="geometry" />
        </mxCell>
        <mxCell id="gghdeuGKYrQB2vMHr8Xe-22" value="Insumo" style="rounded=1;whiteSpace=wrap;html=1;" parent="1" vertex="1">
          <mxGeometry x="795" y="450" width="120" height="60" as="geometry" />
        </mxCell>
        <mxCell id="gghdeuGKYrQB2vMHr8Xe-27" value="Responsavel" style="rounded=1;whiteSpace=wrap;html=1;" parent="1" vertex="1">
          <mxGeometry x="565" y="115" width="120" height="60" as="geometry" />
        </mxCell>
        <mxCell id="gghdeuGKYrQB2vMHr8Xe-36" value="Tutor" style="rounded=1;whiteSpace=wrap;html=1;" parent="1" vertex="1">
          <mxGeometry x="25" y="70" width="120" height="60" as="geometry" />
        </mxCell>
        <mxCell id="gghdeuGKYrQB2vMHr8Xe-37" value="" style="endArrow=none;html=1;rounded=0;entryX=0.5;entryY=0;entryDx=0;entryDy=0;exitX=0.5;exitY=1;exitDx=0;exitDy=0;" parent="1" source="gghdeuGKYrQB2vMHr8Xe-79" target="gghdeuGKYrQB2vMHr8Xe-7" edge="1">
          <mxGeometry width="50" height="50" relative="1" as="geometry">
            <mxPoint x="235" y="140" as="sourcePoint" />
            <mxPoint x="285" y="90" as="targetPoint" />
          </mxGeometry>
        </mxCell>
        <mxCell id="gghdeuGKYrQB2vMHr8Xe-38" value="" style="endArrow=none;html=1;rounded=0;entryX=0;entryY=0.5;entryDx=0;entryDy=0;exitX=1;exitY=0;exitDx=0;exitDy=0;" parent="1" source="gghdeuGKYrQB2vMHr8Xe-81" target="gghdeuGKYrQB2vMHr8Xe-11" edge="1">
          <mxGeometry width="50" height="50" relative="1" as="geometry">
            <mxPoint x="435" y="109.5" as="sourcePoint" />
            <mxPoint x="545" y="109.5" as="targetPoint" />
          </mxGeometry>
        </mxCell>
        <mxCell id="gghdeuGKYrQB2vMHr8Xe-39" value="" style="endArrow=none;html=1;rounded=0;entryX=1;entryY=0.5;entryDx=0;entryDy=0;exitX=0;exitY=0.5;exitDx=0;exitDy=0;" parent="1" source="gghdeuGKYrQB2vMHr8Xe-83" target="gghdeuGKYrQB2vMHr8Xe-11" edge="1">
          <mxGeometry width="50" height="50" relative="1" as="geometry">
            <mxPoint x="555" y="180" as="sourcePoint" />
            <mxPoint x="695" y="180.5" as="targetPoint" />
          </mxGeometry>
        </mxCell>
        <mxCell id="gghdeuGKYrQB2vMHr8Xe-40" value="" style="endArrow=none;html=1;rounded=0;exitX=0.5;exitY=0;exitDx=0;exitDy=0;entryX=0.5;entryY=1;entryDx=0;entryDy=0;" parent="1" source="gghdeuGKYrQB2vMHr8Xe-45" target="gghdeuGKYrQB2vMHr8Xe-112" edge="1">
          <mxGeometry width="50" height="50" relative="1" as="geometry">
            <mxPoint x="300" y="440" as="sourcePoint" />
            <mxPoint x="345" y="420" as="targetPoint" />
          </mxGeometry>
        </mxCell>
        <mxCell id="gghdeuGKYrQB2vMHr8Xe-45" value="Manejo" style="rounded=1;whiteSpace=wrap;html=1;" parent="1" vertex="1">
          <mxGeometry x="285" y="450" width="120" height="60" as="geometry" />
        </mxCell>
        <mxCell id="gghdeuGKYrQB2vMHr8Xe-46" value="&lt;font style=&quot;font-size: 8px;&quot;&gt;id&lt;/font&gt;" style="text;html=1;align=center;verticalAlign=middle;resizable=0;points=[];autosize=1;strokeColor=none;fillColor=none;" parent="1" vertex="1">
          <mxGeometry x="10" y="30" width="30" height="30" as="geometry" />
        </mxCell>
        <mxCell id="gghdeuGKYrQB2vMHr8Xe-47" value="&lt;font style=&quot;font-size: 8px;&quot;&gt;nome&lt;/font&gt;" style="text;html=1;align=center;verticalAlign=middle;resizable=0;points=[];autosize=1;strokeColor=none;fillColor=none;" parent="1" vertex="1">
          <mxGeometry x="25" y="30" width="40" height="30" as="geometry" />
        </mxCell>
        <mxCell id="gghdeuGKYrQB2vMHr8Xe-48" value="&lt;font style=&quot;font-size: 8px;&quot;&gt;cell&lt;/font&gt;" style="text;html=1;align=center;verticalAlign=middle;resizable=0;points=[];autosize=1;strokeColor=none;fillColor=none;" parent="1" vertex="1">
          <mxGeometry x="55" y="30" width="40" height="30" as="geometry" />
        </mxCell>
        <mxCell id="gghdeuGKYrQB2vMHr8Xe-49" value="&lt;font style=&quot;font-size: 8px;&quot;&gt;cep&lt;/font&gt;" style="text;html=1;align=center;verticalAlign=middle;resizable=0;points=[];autosize=1;strokeColor=none;fillColor=none;" parent="1" vertex="1">
          <mxGeometry x="75" y="30" width="40" height="30" as="geometry" />
        </mxCell>
        <mxCell id="gghdeuGKYrQB2vMHr8Xe-50" value="&lt;font style=&quot;font-size: 8px;&quot;&gt;rua&lt;/font&gt;" style="text;html=1;align=center;verticalAlign=middle;resizable=0;points=[];autosize=1;strokeColor=none;fillColor=none;" parent="1" vertex="1">
          <mxGeometry x="95" y="30" width="40" height="30" as="geometry" />
        </mxCell>
        <mxCell id="gghdeuGKYrQB2vMHr8Xe-51" value="&lt;font style=&quot;font-size: 8px;&quot;&gt;bairro&lt;/font&gt;" style="text;html=1;align=center;verticalAlign=middle;resizable=0;points=[];autosize=1;strokeColor=none;fillColor=none;" parent="1" vertex="1">
          <mxGeometry x="120" y="30" width="40" height="30" as="geometry" />
        </mxCell>
        <mxCell id="gghdeuGKYrQB2vMHr8Xe-52" value="&lt;span style=&quot;font-size: 8px;&quot;&gt;num&lt;/span&gt;" style="text;html=1;align=center;verticalAlign=middle;resizable=0;points=[];autosize=1;strokeColor=none;fillColor=none;" parent="1" vertex="1">
          <mxGeometry x="145" y="30" width="40" height="30" as="geometry" />
        </mxCell>
        <mxCell id="gghdeuGKYrQB2vMHr8Xe-53" value="&lt;span style=&quot;font-size: 8px;&quot;&gt;complemento&lt;/span&gt;" style="text;html=1;align=center;verticalAlign=middle;resizable=0;points=[];autosize=1;strokeColor=none;fillColor=none;" parent="1" vertex="1">
          <mxGeometry x="170" y="30" width="70" height="30" as="geometry" />
        </mxCell>
        <mxCell id="gghdeuGKYrQB2vMHr8Xe-54" value="&lt;font style=&quot;font-size: 8px;&quot;&gt;id&lt;/font&gt;" style="text;html=1;align=center;verticalAlign=middle;resizable=0;points=[];autosize=1;strokeColor=none;fillColor=none;" parent="1" vertex="1">
          <mxGeometry x="35" y="350" width="30" height="30" as="geometry" />
        </mxCell>
        <mxCell id="gghdeuGKYrQB2vMHr8Xe-55" value="&lt;font style=&quot;font-size: 8px;&quot;&gt;nome&lt;/font&gt;" style="text;html=1;align=center;verticalAlign=middle;resizable=0;points=[];autosize=1;strokeColor=none;fillColor=none;" parent="1" vertex="1">
          <mxGeometry x="35" y="370" width="40" height="30" as="geometry" />
        </mxCell>
        <mxCell id="gghdeuGKYrQB2vMHr8Xe-56" value="&lt;font style=&quot;font-size: 8px;&quot;&gt;especie&lt;/font&gt;" style="text;html=1;align=center;verticalAlign=middle;resizable=0;points=[];autosize=1;strokeColor=none;fillColor=none;" parent="1" vertex="1">
          <mxGeometry x="35" y="390" width="50" height="30" as="geometry" />
        </mxCell>
        <mxCell id="gghdeuGKYrQB2vMHr8Xe-57" value="&lt;font style=&quot;font-size: 8px;&quot;&gt;cor&lt;/font&gt;" style="text;html=1;align=center;verticalAlign=middle;resizable=0;points=[];autosize=1;strokeColor=none;fillColor=none;" parent="1" vertex="1">
          <mxGeometry x="40" y="410" width="30" height="30" as="geometry" />
        </mxCell>
        <mxCell id="gghdeuGKYrQB2vMHr8Xe-58" value="&lt;font style=&quot;font-size: 8px;&quot;&gt;idade&lt;/font&gt;" style="text;html=1;align=center;verticalAlign=middle;resizable=0;points=[];autosize=1;strokeColor=none;fillColor=none;" parent="1" vertex="1">
          <mxGeometry x="40" y="460" width="40" height="30" as="geometry" />
        </mxCell>
        <mxCell id="gghdeuGKYrQB2vMHr8Xe-59" value="&lt;font style=&quot;font-size: 8px;&quot;&gt;tamanho&lt;/font&gt;" style="text;html=1;align=center;verticalAlign=middle;resizable=0;points=[];autosize=1;strokeColor=none;fillColor=none;" parent="1" vertex="1">
          <mxGeometry x="40" y="435" width="50" height="30" as="geometry" />
        </mxCell>
        <mxCell id="gghdeuGKYrQB2vMHr8Xe-60" value="&lt;font style=&quot;font-size: 8px;&quot;&gt;id&lt;/font&gt;" style="text;html=1;align=center;verticalAlign=middle;resizable=0;points=[];autosize=1;strokeColor=none;fillColor=none;" parent="1" vertex="1">
          <mxGeometry x="280" y="65" width="30" height="30" as="geometry" />
        </mxCell>
        <mxCell id="gghdeuGKYrQB2vMHr8Xe-61" value="&lt;font style=&quot;font-size: 8px;&quot;&gt;dataPrv&lt;/font&gt;" style="text;html=1;align=center;verticalAlign=middle;resizable=0;points=[];autosize=1;strokeColor=none;fillColor=none;" parent="1" vertex="1">
          <mxGeometry x="299" y="65" width="50" height="30" as="geometry" />
        </mxCell>
        <mxCell id="gghdeuGKYrQB2vMHr8Xe-62" value="&lt;font style=&quot;font-size: 8px;&quot;&gt;observação&lt;/font&gt;" style="text;html=1;align=center;verticalAlign=middle;resizable=0;points=[];autosize=1;strokeColor=none;fillColor=none;" parent="1" vertex="1">
          <mxGeometry x="345" y="65" width="60" height="30" as="geometry" />
        </mxCell>
        <mxCell id="gghdeuGKYrQB2vMHr8Xe-63" value="&lt;font style=&quot;font-size: 8px;&quot;&gt;id&lt;/font&gt;" style="text;html=1;align=center;verticalAlign=middle;resizable=0;points=[];autosize=1;strokeColor=none;fillColor=none;" parent="1" vertex="1">
          <mxGeometry x="635" y="180" width="30" height="30" as="geometry" />
        </mxCell>
        <mxCell id="gghdeuGKYrQB2vMHr8Xe-64" value="&lt;font style=&quot;font-size: 8px;&quot;&gt;nome&lt;/font&gt;" style="text;html=1;align=center;verticalAlign=middle;resizable=0;points=[];autosize=1;strokeColor=none;fillColor=none;" parent="1" vertex="1">
          <mxGeometry x="625" y="190" width="40" height="30" as="geometry" />
        </mxCell>
        <mxCell id="gghdeuGKYrQB2vMHr8Xe-65" value="&lt;font style=&quot;font-size: 8px;&quot;&gt;cell&lt;/font&gt;" style="text;html=1;align=center;verticalAlign=middle;resizable=0;points=[];autosize=1;strokeColor=none;fillColor=none;" parent="1" vertex="1">
          <mxGeometry x="630" y="200" width="40" height="30" as="geometry" />
        </mxCell>
        <mxCell id="gghdeuGKYrQB2vMHr8Xe-66" value="&lt;font style=&quot;font-size: 8px;&quot;&gt;tipo&lt;/font&gt;" style="text;html=1;align=center;verticalAlign=middle;resizable=0;points=[];autosize=1;strokeColor=none;fillColor=none;" parent="1" vertex="1">
          <mxGeometry x="630" y="210" width="40" height="30" as="geometry" />
        </mxCell>
        <mxCell id="gghdeuGKYrQB2vMHr8Xe-67" value="&lt;font style=&quot;font-size: 8px;&quot;&gt;id&lt;/font&gt;" style="text;html=1;align=center;verticalAlign=middle;resizable=0;points=[];autosize=1;strokeColor=none;fillColor=none;" parent="1" vertex="1">
          <mxGeometry x="290" y="510" width="30" height="30" as="geometry" />
        </mxCell>
        <mxCell id="gghdeuGKYrQB2vMHr8Xe-68" value="&lt;font style=&quot;font-size: 8px;&quot;&gt;nome&lt;/font&gt;" style="text;html=1;align=center;verticalAlign=middle;resizable=0;points=[];autosize=1;strokeColor=none;fillColor=none;" parent="1" vertex="1">
          <mxGeometry x="290" y="530" width="40" height="30" as="geometry" />
        </mxCell>
        <mxCell id="gghdeuGKYrQB2vMHr8Xe-69" value="&lt;font style=&quot;font-size: 8px;&quot;&gt;descricao&lt;/font&gt;" style="text;html=1;align=center;verticalAlign=middle;resizable=0;points=[];autosize=1;strokeColor=none;fillColor=none;" parent="1" vertex="1">
          <mxGeometry x="289" y="550" width="60" height="30" as="geometry" />
        </mxCell>
        <mxCell id="gghdeuGKYrQB2vMHr8Xe-70" value="&lt;font style=&quot;font-size: 8px;&quot;&gt;id&lt;/font&gt;" style="text;html=1;align=center;verticalAlign=middle;resizable=0;points=[];autosize=1;strokeColor=none;fillColor=none;" parent="1" vertex="1">
          <mxGeometry x="802" y="400" width="30" height="30" as="geometry" />
        </mxCell>
        <mxCell id="gghdeuGKYrQB2vMHr8Xe-71" value="&lt;font style=&quot;font-size: 8px;&quot;&gt;nome&lt;/font&gt;" style="text;html=1;align=center;verticalAlign=middle;resizable=0;points=[];autosize=1;strokeColor=none;fillColor=none;" parent="1" vertex="1">
          <mxGeometry x="815" y="400" width="40" height="30" as="geometry" />
        </mxCell>
        <mxCell id="gghdeuGKYrQB2vMHr8Xe-72" value="&lt;font style=&quot;font-size: 8px;&quot;&gt;tipo&lt;/font&gt;" style="text;html=1;align=center;verticalAlign=middle;resizable=0;points=[];autosize=1;strokeColor=none;fillColor=none;" parent="1" vertex="1">
          <mxGeometry x="835" y="400" width="40" height="30" as="geometry" />
        </mxCell>
        <mxCell id="gghdeuGKYrQB2vMHr8Xe-73" value="&lt;font style=&quot;font-size: 8px;&quot;&gt;precoCusto&lt;/font&gt;" style="text;html=1;align=center;verticalAlign=middle;resizable=0;points=[];autosize=1;strokeColor=none;fillColor=none;" parent="1" vertex="1">
          <mxGeometry x="855" y="400" width="60" height="30" as="geometry" />
        </mxCell>
        <mxCell id="gghdeuGKYrQB2vMHr8Xe-74" value="&lt;span style=&quot;font-size: 8px;&quot;&gt;quantidade&lt;/span&gt;" style="text;html=1;align=center;verticalAlign=middle;resizable=0;points=[];autosize=1;strokeColor=none;fillColor=none;" parent="1" vertex="1">
          <mxGeometry x="905" y="400" width="60" height="30" as="geometry" />
        </mxCell>
        <mxCell id="gghdeuGKYrQB2vMHr8Xe-75" value="&lt;font style=&quot;font-size: 8px;&quot;&gt;id&lt;/font&gt;" style="text;html=1;align=center;verticalAlign=middle;resizable=0;points=[];autosize=1;strokeColor=none;fillColor=none;" parent="1" vertex="1">
          <mxGeometry x="795" y="720" width="30" height="30" as="geometry" />
        </mxCell>
        <mxCell id="gghdeuGKYrQB2vMHr8Xe-76" value="&lt;span style=&quot;font-size: 8px;&quot;&gt;data&lt;/span&gt;" style="text;html=1;align=center;verticalAlign=middle;resizable=0;points=[];autosize=1;strokeColor=none;fillColor=none;" parent="1" vertex="1">
          <mxGeometry x="795" y="738" width="40" height="30" as="geometry" />
        </mxCell>
        <mxCell id="gghdeuGKYrQB2vMHr8Xe-77" value="&lt;font style=&quot;font-size: 8px;&quot;&gt;quantidade&lt;/font&gt;" style="text;html=1;align=center;verticalAlign=middle;resizable=0;points=[];autosize=1;strokeColor=none;fillColor=none;" parent="1" vertex="1">
          <mxGeometry x="795" y="760" width="60" height="30" as="geometry" />
        </mxCell>
        <mxCell id="gghdeuGKYrQB2vMHr8Xe-78" value="" style="endArrow=none;html=1;rounded=0;entryX=0.5;entryY=0;entryDx=0;entryDy=0;exitX=0.5;exitY=1;exitDx=0;exitDy=0;" parent="1" source="gghdeuGKYrQB2vMHr8Xe-36" target="gghdeuGKYrQB2vMHr8Xe-79" edge="1">
          <mxGeometry width="50" height="50" relative="1" as="geometry">
            <mxPoint x="145" y="110" as="sourcePoint" />
            <mxPoint x="315" y="110" as="targetPoint" />
          </mxGeometry>
        </mxCell>
        <mxCell id="gghdeuGKYrQB2vMHr8Xe-79" value="" style="rhombus;whiteSpace=wrap;html=1;" parent="1" vertex="1">
          <mxGeometry x="65" y="200" width="40" height="40" as="geometry" />
        </mxCell>
        <mxCell id="gghdeuGKYrQB2vMHr8Xe-80" value="" style="endArrow=none;html=1;rounded=0;entryX=0;entryY=1;entryDx=0;entryDy=0;exitX=0.966;exitY=0.068;exitDx=0;exitDy=0;exitPerimeter=0;" parent="1" source="gghdeuGKYrQB2vMHr8Xe-7" target="gghdeuGKYrQB2vMHr8Xe-81" edge="1">
          <mxGeometry width="50" height="50" relative="1" as="geometry">
            <mxPoint x="435" y="109.5" as="sourcePoint" />
            <mxPoint x="615" y="110" as="targetPoint" />
          </mxGeometry>
        </mxCell>
        <mxCell id="gghdeuGKYrQB2vMHr8Xe-81" value="" style="rhombus;whiteSpace=wrap;html=1;" parent="1" vertex="1">
          <mxGeometry x="200" y="200" width="40" height="40" as="geometry" />
        </mxCell>
        <mxCell id="gghdeuGKYrQB2vMHr8Xe-83" value="" style="rhombus;whiteSpace=wrap;html=1;" parent="1" vertex="1">
          <mxGeometry x="485" y="125" width="40" height="40" as="geometry" />
        </mxCell>
        <mxCell id="gghdeuGKYrQB2vMHr8Xe-84" value="" style="endArrow=none;html=1;rounded=0;entryX=0.5;entryY=0;entryDx=0;entryDy=0;exitX=0.5;exitY=1;exitDx=0;exitDy=0;" parent="1" source="gghdeuGKYrQB2vMHr8Xe-22" target="gghdeuGKYrQB2vMHr8Xe-85" edge="1">
          <mxGeometry width="50" height="50" relative="1" as="geometry">
            <mxPoint x="345" y="830" as="sourcePoint" />
            <mxPoint x="345" y="980" as="targetPoint" />
          </mxGeometry>
        </mxCell>
        <mxCell id="gghdeuGKYrQB2vMHr8Xe-85" value="" style="rhombus;whiteSpace=wrap;html=1;" parent="1" vertex="1">
          <mxGeometry x="835" y="565" width="40" height="40" as="geometry" />
        </mxCell>
        <mxCell id="gghdeuGKYrQB2vMHr8Xe-86" value="0..*" style="text;html=1;align=center;verticalAlign=middle;resizable=0;points=[];autosize=1;strokeColor=none;fillColor=none;" parent="1" vertex="1">
          <mxGeometry x="85" y="260" width="40" height="30" as="geometry" />
        </mxCell>
        <mxCell id="gghdeuGKYrQB2vMHr8Xe-87" value="1" style="text;html=1;align=center;verticalAlign=middle;resizable=0;points=[];autosize=1;strokeColor=none;fillColor=none;" parent="1" vertex="1">
          <mxGeometry x="85" y="130" width="30" height="30" as="geometry" />
        </mxCell>
        <mxCell id="gghdeuGKYrQB2vMHr8Xe-88" value="0..*" style="text;html=1;align=center;verticalAlign=middle;resizable=0;points=[];autosize=1;strokeColor=none;fillColor=none;" parent="1" vertex="1">
          <mxGeometry x="245" y="125" width="40" height="30" as="geometry" />
        </mxCell>
        <mxCell id="gghdeuGKYrQB2vMHr8Xe-89" value="1" style="text;html=1;align=center;verticalAlign=middle;resizable=0;points=[];autosize=1;strokeColor=none;fillColor=none;" parent="1" vertex="1">
          <mxGeometry x="125" y="260" width="30" height="30" as="geometry" />
        </mxCell>
        <mxCell id="gghdeuGKYrQB2vMHr8Xe-91" value="0..*" style="text;html=1;align=center;verticalAlign=middle;resizable=0;points=[];autosize=1;strokeColor=none;fillColor=none;" parent="1" vertex="1">
          <mxGeometry x="405" y="115" width="40" height="30" as="geometry" />
        </mxCell>
        <mxCell id="gghdeuGKYrQB2vMHr8Xe-92" value="" style="endArrow=none;html=1;rounded=0;entryX=0.5;entryY=1;entryDx=0;entryDy=0;exitX=0.5;exitY=0;exitDx=0;exitDy=0;" parent="1" edge="1">
          <mxGeometry width="50" height="50" relative="1" as="geometry">
            <mxPoint x="565" y="370" as="sourcePoint" />
            <mxPoint x="564.5" y="370" as="targetPoint" />
          </mxGeometry>
        </mxCell>
        <mxCell id="gghdeuGKYrQB2vMHr8Xe-94" value="ItensManejo" style="rounded=1;whiteSpace=wrap;html=1;" parent="1" vertex="1">
          <mxGeometry x="285" y="285" width="120" height="60" as="geometry" />
        </mxCell>
        <mxCell id="gghdeuGKYrQB2vMHr8Xe-99" value="" style="endArrow=none;html=1;rounded=0;entryX=1;entryY=0.5;entryDx=0;entryDy=0;exitX=0;exitY=0.5;exitDx=0;exitDy=0;" parent="1" source="gghdeuGKYrQB2vMHr8Xe-104" target="gghdeuGKYrQB2vMHr8Xe-45" edge="1">
          <mxGeometry width="50" height="50" relative="1" as="geometry">
            <mxPoint x="429.38" y="450" as="sourcePoint" />
            <mxPoint x="429.38" y="370" as="targetPoint" />
          </mxGeometry>
        </mxCell>
        <mxCell id="gghdeuGKYrQB2vMHr8Xe-100" value="" style="endArrow=none;html=1;rounded=0;entryX=0.5;entryY=0;entryDx=0;entryDy=0;exitX=0.5;exitY=1;exitDx=0;exitDy=0;" parent="1" source="gghdeuGKYrQB2vMHr8Xe-102" target="gghdeuGKYrQB2vMHr8Xe-94" edge="1">
          <mxGeometry width="50" height="50" relative="1" as="geometry">
            <mxPoint x="635" y="204.38" as="sourcePoint" />
            <mxPoint x="490" y="204.38" as="targetPoint" />
          </mxGeometry>
        </mxCell>
        <mxCell id="gghdeuGKYrQB2vMHr8Xe-101" value="" style="endArrow=none;html=1;rounded=0;entryX=0.5;entryY=0;entryDx=0;entryDy=0;exitX=0.5;exitY=1;exitDx=0;exitDy=0;" parent="1" source="gghdeuGKYrQB2vMHr8Xe-11" target="gghdeuGKYrQB2vMHr8Xe-102" edge="1">
          <mxGeometry width="50" height="50" relative="1" as="geometry">
            <mxPoint x="615" y="140" as="sourcePoint" />
            <mxPoint x="490" y="240" as="targetPoint" />
          </mxGeometry>
        </mxCell>
        <mxCell id="gghdeuGKYrQB2vMHr8Xe-102" value="" style="rhombus;whiteSpace=wrap;html=1;" parent="1" vertex="1">
          <mxGeometry x="325" y="210" width="40" height="40" as="geometry" />
        </mxCell>
        <mxCell id="gghdeuGKYrQB2vMHr8Xe-103" value="" style="endArrow=none;html=1;rounded=0;entryX=1;entryY=0.5;entryDx=0;entryDy=0;exitX=0;exitY=0.5;exitDx=0;exitDy=0;" parent="1" source="gghdeuGKYrQB2vMHr8Xe-109" target="gghdeuGKYrQB2vMHr8Xe-104" edge="1">
          <mxGeometry width="50" height="50" relative="1" as="geometry">
            <mxPoint x="505" y="400" as="sourcePoint" />
            <mxPoint x="360" y="400" as="targetPoint" />
          </mxGeometry>
        </mxCell>
        <mxCell id="gghdeuGKYrQB2vMHr8Xe-104" value="" style="rhombus;whiteSpace=wrap;html=1;" parent="1" vertex="1">
          <mxGeometry x="445" y="460" width="40" height="40" as="geometry" />
        </mxCell>
        <mxCell id="gghdeuGKYrQB2vMHr8Xe-105" value="1" style="text;html=1;align=center;verticalAlign=middle;resizable=0;points=[];autosize=1;strokeColor=none;fillColor=none;" parent="1" vertex="1">
          <mxGeometry x="535" y="115" width="30" height="30" as="geometry" />
        </mxCell>
        <mxCell id="gghdeuGKYrQB2vMHr8Xe-106" value="1..*" style="text;html=1;align=center;verticalAlign=middle;resizable=0;points=[];autosize=1;strokeColor=none;fillColor=none;" parent="1" vertex="1">
          <mxGeometry x="349" y="260" width="40" height="30" as="geometry" />
        </mxCell>
        <mxCell id="gghdeuGKYrQB2vMHr8Xe-107" value="1..*" style="text;html=1;align=center;verticalAlign=middle;resizable=0;points=[];autosize=1;strokeColor=none;fillColor=none;" parent="1" vertex="1">
          <mxGeometry x="495" y="450" width="40" height="30" as="geometry" />
        </mxCell>
        <mxCell id="gghdeuGKYrQB2vMHr8Xe-108" value="1" style="text;html=1;align=center;verticalAlign=middle;resizable=0;points=[];autosize=1;strokeColor=none;fillColor=none;" parent="1" vertex="1">
          <mxGeometry x="405" y="450" width="30" height="30" as="geometry" />
        </mxCell>
        <mxCell id="gghdeuGKYrQB2vMHr8Xe-109" value="ItensInsumo" style="rounded=1;whiteSpace=wrap;html=1;" parent="1" vertex="1">
          <mxGeometry x="535" y="450" width="120" height="60" as="geometry" />
        </mxCell>
        <mxCell id="gghdeuGKYrQB2vMHr8Xe-111" value="" style="rhombus;whiteSpace=wrap;html=1;" parent="1" vertex="1">
          <mxGeometry x="705" y="460" width="40" height="40" as="geometry" />
        </mxCell>
        <mxCell id="gghdeuGKYrQB2vMHr8Xe-112" value="" style="rhombus;whiteSpace=wrap;html=1;" parent="1" vertex="1">
          <mxGeometry x="325" y="375" width="40" height="40" as="geometry" />
        </mxCell>
        <mxCell id="gghdeuGKYrQB2vMHr8Xe-113" value="1..*" style="text;html=1;align=center;verticalAlign=middle;resizable=0;points=[];autosize=1;strokeColor=none;fillColor=none;" parent="1" vertex="1">
          <mxGeometry x="650" y="450" width="40" height="30" as="geometry" />
        </mxCell>
        <mxCell id="gghdeuGKYrQB2vMHr8Xe-114" value="1..*" style="text;html=1;align=center;verticalAlign=middle;resizable=0;points=[];autosize=1;strokeColor=none;fillColor=none;" parent="1" vertex="1">
          <mxGeometry x="309" y="340" width="40" height="30" as="geometry" />
        </mxCell>
        <mxCell id="gghdeuGKYrQB2vMHr8Xe-116" value="1" style="text;html=1;align=center;verticalAlign=middle;resizable=0;points=[];autosize=1;strokeColor=none;fillColor=none;" parent="1" vertex="1">
          <mxGeometry x="315" y="420" width="30" height="30" as="geometry" />
        </mxCell>
        <mxCell id="gghdeuGKYrQB2vMHr8Xe-117" value="&lt;font style=&quot;font-size: 8px;&quot;&gt;tipoES&lt;/font&gt;" style="text;html=1;align=center;verticalAlign=middle;resizable=0;points=[];autosize=1;strokeColor=none;fillColor=none;" parent="1" vertex="1">
          <mxGeometry x="795" y="780" width="50" height="30" as="geometry" />
        </mxCell>
        <mxCell id="gghdeuGKYrQB2vMHr8Xe-119" value="&lt;span style=&quot;font-size: 8px;&quot;&gt;quantidade&lt;/span&gt;" style="text;html=1;align=center;verticalAlign=middle;resizable=0;points=[];autosize=1;strokeColor=none;fillColor=none;" parent="1" vertex="1">
          <mxGeometry x="545" y="530" width="60" height="30" as="geometry" />
        </mxCell>
        <mxCell id="gghdeuGKYrQB2vMHr8Xe-90" value="1" style="text;html=1;align=center;verticalAlign=middle;resizable=0;points=[];autosize=1;strokeColor=none;fillColor=none;" parent="1" vertex="1">
          <mxGeometry x="345" y="170" width="30" height="30" as="geometry" />
        </mxCell>
        <mxCell id="DlrQJgaFfJ7lG5ZTbxLn-5" value="" style="endArrow=none;html=1;rounded=0;entryX=1;entryY=0.5;entryDx=0;entryDy=0;exitX=0;exitY=0.5;exitDx=0;exitDy=0;" parent="1" source="gghdeuGKYrQB2vMHr8Xe-27" target="gghdeuGKYrQB2vMHr8Xe-83" edge="1">
          <mxGeometry width="50" height="50" relative="1" as="geometry">
            <mxPoint x="677" y="270" as="sourcePoint" />
            <mxPoint x="665" y="210" as="targetPoint" />
          </mxGeometry>
        </mxCell>
        <mxCell id="DlrQJgaFfJ7lG5ZTbxLn-9" value="" style="endArrow=none;html=1;rounded=0;entryX=0.494;entryY=0;entryDx=0;entryDy=0;entryPerimeter=0;" parent="1" target="gghdeuGKYrQB2vMHr8Xe-36" edge="1">
          <mxGeometry width="50" height="50" relative="1" as="geometry">
            <mxPoint x="85" y="60" as="sourcePoint" />
            <mxPoint x="155" y="80" as="targetPoint" />
          </mxGeometry>
        </mxCell>
        <mxCell id="DlrQJgaFfJ7lG5ZTbxLn-10" value="" style="endArrow=none;html=1;rounded=0;" parent="1" edge="1">
          <mxGeometry width="50" height="50" relative="1" as="geometry">
            <mxPoint x="25" y="60" as="sourcePoint" />
            <mxPoint x="205" y="60" as="targetPoint" />
          </mxGeometry>
        </mxCell>
        <mxCell id="DlrQJgaFfJ7lG5ZTbxLn-11" value="" style="endArrow=none;html=1;rounded=0;" parent="1" edge="1">
          <mxGeometry width="50" height="50" relative="1" as="geometry">
            <mxPoint x="25" y="60" as="sourcePoint" />
            <mxPoint x="25" y="50" as="targetPoint" />
          </mxGeometry>
        </mxCell>
        <mxCell id="DlrQJgaFfJ7lG5ZTbxLn-12" value="" style="endArrow=none;html=1;rounded=0;exitX=0.5;exitY=0;exitDx=0;exitDy=0;entryX=0.5;entryY=1;entryDx=0;entryDy=0;" parent="1" source="gghdeuGKYrQB2vMHr8Xe-112" target="gghdeuGKYrQB2vMHr8Xe-94" edge="1">
          <mxGeometry width="50" height="50" relative="1" as="geometry">
            <mxPoint x="335" y="380" as="sourcePoint" />
            <mxPoint x="385" y="330" as="targetPoint" />
          </mxGeometry>
        </mxCell>
        <mxCell id="DlrQJgaFfJ7lG5ZTbxLn-13" value="" style="endArrow=none;html=1;rounded=0;entryX=0;entryY=0.5;entryDx=0;entryDy=0;exitX=1;exitY=0.5;exitDx=0;exitDy=0;" parent="1" source="gghdeuGKYrQB2vMHr8Xe-111" target="gghdeuGKYrQB2vMHr8Xe-22" edge="1">
          <mxGeometry width="50" height="50" relative="1" as="geometry">
            <mxPoint x="775" y="540" as="sourcePoint" />
            <mxPoint x="825" y="490" as="targetPoint" />
          </mxGeometry>
        </mxCell>
        <mxCell id="DlrQJgaFfJ7lG5ZTbxLn-14" value="" style="endArrow=none;html=1;rounded=0;entryX=0;entryY=0.5;entryDx=0;entryDy=0;exitX=1;exitY=0.5;exitDx=0;exitDy=0;" parent="1" source="gghdeuGKYrQB2vMHr8Xe-109" target="gghdeuGKYrQB2vMHr8Xe-111" edge="1">
          <mxGeometry width="50" height="50" relative="1" as="geometry">
            <mxPoint x="705" y="520" as="sourcePoint" />
            <mxPoint x="745" y="520" as="targetPoint" />
          </mxGeometry>
        </mxCell>
        <mxCell id="DlrQJgaFfJ7lG5ZTbxLn-15" value="1" style="text;html=1;align=center;verticalAlign=middle;resizable=0;points=[];autosize=1;strokeColor=none;fillColor=none;" parent="1" vertex="1">
          <mxGeometry x="765" y="450" width="30" height="30" as="geometry" />
        </mxCell>
        <mxCell id="DlrQJgaFfJ7lG5ZTbxLn-16" value="" style="endArrow=none;html=1;rounded=0;entryX=0.5;entryY=1;entryDx=0;entryDy=0;exitX=0.5;exitY=0;exitDx=0;exitDy=0;" parent="1" source="gghdeuGKYrQB2vMHr8Xe-16" target="gghdeuGKYrQB2vMHr8Xe-85" edge="1">
          <mxGeometry width="50" height="50" relative="1" as="geometry">
            <mxPoint x="735" y="780" as="sourcePoint" />
            <mxPoint x="785" y="730" as="targetPoint" />
          </mxGeometry>
        </mxCell>
        <mxCell id="DlrQJgaFfJ7lG5ZTbxLn-17" value="" style="endArrow=none;html=1;rounded=0;" parent="1" edge="1">
          <mxGeometry width="50" height="50" relative="1" as="geometry">
            <mxPoint x="44.94" y="60" as="sourcePoint" />
            <mxPoint x="44.94" y="50" as="targetPoint" />
          </mxGeometry>
        </mxCell>
        <mxCell id="DlrQJgaFfJ7lG5ZTbxLn-18" value="" style="endArrow=none;html=1;rounded=0;" parent="1" edge="1">
          <mxGeometry width="50" height="50" relative="1" as="geometry">
            <mxPoint x="74.87" y="60" as="sourcePoint" />
            <mxPoint x="74.87" y="50" as="targetPoint" />
          </mxGeometry>
        </mxCell>
        <mxCell id="DlrQJgaFfJ7lG5ZTbxLn-19" value="" style="endArrow=none;html=1;rounded=0;" parent="1" edge="1">
          <mxGeometry width="50" height="50" relative="1" as="geometry">
            <mxPoint x="95" y="60" as="sourcePoint" />
            <mxPoint x="95" y="50" as="targetPoint" />
          </mxGeometry>
        </mxCell>
        <mxCell id="DlrQJgaFfJ7lG5ZTbxLn-20" value="" style="endArrow=none;html=1;rounded=0;" parent="1" edge="1">
          <mxGeometry width="50" height="50" relative="1" as="geometry">
            <mxPoint x="114.87" y="60" as="sourcePoint" />
            <mxPoint x="114.87" y="50" as="targetPoint" />
          </mxGeometry>
        </mxCell>
        <mxCell id="DlrQJgaFfJ7lG5ZTbxLn-21" value="" style="endArrow=none;html=1;rounded=0;" parent="1" edge="1">
          <mxGeometry width="50" height="50" relative="1" as="geometry">
            <mxPoint x="139.94" y="60" as="sourcePoint" />
            <mxPoint x="139.94" y="50" as="targetPoint" />
          </mxGeometry>
        </mxCell>
        <mxCell id="DlrQJgaFfJ7lG5ZTbxLn-22" value="" style="endArrow=none;html=1;rounded=0;" parent="1" edge="1">
          <mxGeometry width="50" height="50" relative="1" as="geometry">
            <mxPoint x="164.94" y="60" as="sourcePoint" />
            <mxPoint x="164.94" y="50" as="targetPoint" />
          </mxGeometry>
        </mxCell>
        <mxCell id="DlrQJgaFfJ7lG5ZTbxLn-23" value="" style="endArrow=none;html=1;rounded=0;" parent="1" edge="1">
          <mxGeometry width="50" height="50" relative="1" as="geometry">
            <mxPoint x="204.96" y="60" as="sourcePoint" />
            <mxPoint x="204.96" y="50" as="targetPoint" />
          </mxGeometry>
        </mxCell>
        <mxCell id="DlrQJgaFfJ7lG5ZTbxLn-25" value="" style="endArrow=none;html=1;rounded=0;exitX=0.083;exitY=1;exitDx=0;exitDy=0;exitPerimeter=0;" parent="1" source="gghdeuGKYrQB2vMHr8Xe-7" edge="1">
          <mxGeometry width="50" height="50" relative="1" as="geometry">
            <mxPoint x="125" y="380" as="sourcePoint" />
            <mxPoint x="35" y="480" as="targetPoint" />
          </mxGeometry>
        </mxCell>
        <mxCell id="DlrQJgaFfJ7lG5ZTbxLn-26" value="" style="endArrow=none;html=1;rounded=0;entryX=-0.03;entryY=0.563;entryDx=0;entryDy=0;entryPerimeter=0;" parent="1" edge="1">
          <mxGeometry width="50" height="50" relative="1" as="geometry">
            <mxPoint x="35" y="365" as="sourcePoint" />
            <mxPoint x="44.10000000000002" y="364.92" as="targetPoint" />
          </mxGeometry>
        </mxCell>
        <mxCell id="DlrQJgaFfJ7lG5ZTbxLn-27" value="" style="endArrow=none;html=1;rounded=0;entryX=-0.03;entryY=0.563;entryDx=0;entryDy=0;entryPerimeter=0;" parent="1" edge="1">
          <mxGeometry width="50" height="50" relative="1" as="geometry">
            <mxPoint x="35" y="385.03999999999996" as="sourcePoint" />
            <mxPoint x="44.10000000000002" y="384.96" as="targetPoint" />
          </mxGeometry>
        </mxCell>
        <mxCell id="DlrQJgaFfJ7lG5ZTbxLn-28" value="" style="endArrow=none;html=1;rounded=0;entryX=-0.03;entryY=0.563;entryDx=0;entryDy=0;entryPerimeter=0;" parent="1" edge="1">
          <mxGeometry width="50" height="50" relative="1" as="geometry">
            <mxPoint x="35" y="405.03999999999996" as="sourcePoint" />
            <mxPoint x="44.10000000000002" y="404.96" as="targetPoint" />
          </mxGeometry>
        </mxCell>
        <mxCell id="DlrQJgaFfJ7lG5ZTbxLn-29" value="" style="endArrow=none;html=1;rounded=0;entryX=-0.03;entryY=0.563;entryDx=0;entryDy=0;entryPerimeter=0;" parent="1" edge="1">
          <mxGeometry width="50" height="50" relative="1" as="geometry">
            <mxPoint x="35" y="425.03999999999996" as="sourcePoint" />
            <mxPoint x="44.10000000000002" y="424.96" as="targetPoint" />
          </mxGeometry>
        </mxCell>
        <mxCell id="DlrQJgaFfJ7lG5ZTbxLn-30" value="" style="endArrow=none;html=1;rounded=0;entryX=-0.03;entryY=0.563;entryDx=0;entryDy=0;entryPerimeter=0;" parent="1" edge="1">
          <mxGeometry width="50" height="50" relative="1" as="geometry">
            <mxPoint x="35" y="450" as="sourcePoint" />
            <mxPoint x="44.10000000000002" y="449.92" as="targetPoint" />
          </mxGeometry>
        </mxCell>
        <mxCell id="DlrQJgaFfJ7lG5ZTbxLn-31" value="" style="endArrow=none;html=1;rounded=0;entryX=-0.03;entryY=0.563;entryDx=0;entryDy=0;entryPerimeter=0;" parent="1" edge="1">
          <mxGeometry width="50" height="50" relative="1" as="geometry">
            <mxPoint x="35" y="475.03999999999996" as="sourcePoint" />
            <mxPoint x="44.10000000000002" y="474.96" as="targetPoint" />
          </mxGeometry>
        </mxCell>
        <mxCell id="CT2oSuwyQ2LbBHEUBvYI-1" value="" style="endArrow=none;html=1;rounded=0;exitX=0.413;exitY=-0.001;exitDx=0;exitDy=0;exitPerimeter=0;" parent="1" source="gghdeuGKYrQB2vMHr8Xe-11" edge="1">
          <mxGeometry width="50" height="50" relative="1" as="geometry">
            <mxPoint x="325" y="150" as="sourcePoint" />
            <mxPoint x="335" y="100" as="targetPoint" />
          </mxGeometry>
        </mxCell>
        <mxCell id="CT2oSuwyQ2LbBHEUBvYI-2" value="" style="endArrow=none;html=1;rounded=0;" parent="1" edge="1">
          <mxGeometry width="50" height="50" relative="1" as="geometry">
            <mxPoint x="295" y="100" as="sourcePoint" />
            <mxPoint x="375" y="100" as="targetPoint" />
            <Array as="points">
              <mxPoint x="335" y="100" />
            </Array>
          </mxGeometry>
        </mxCell>
        <mxCell id="CT2oSuwyQ2LbBHEUBvYI-3" value="" style="endArrow=none;html=1;rounded=0;" parent="1" target="gghdeuGKYrQB2vMHr8Xe-61" edge="1">
          <mxGeometry width="50" height="50" relative="1" as="geometry">
            <mxPoint x="325" y="100" as="sourcePoint" />
            <mxPoint x="325" y="93" as="targetPoint" />
          </mxGeometry>
        </mxCell>
        <mxCell id="CT2oSuwyQ2LbBHEUBvYI-4" value="" style="endArrow=none;html=1;rounded=0;entryX=0.497;entryY=0.915;entryDx=0;entryDy=0;entryPerimeter=0;" parent="1" target="gghdeuGKYrQB2vMHr8Xe-60" edge="1">
          <mxGeometry width="50" height="50" relative="1" as="geometry">
            <mxPoint x="295" y="100" as="sourcePoint" />
            <mxPoint x="315" y="90" as="targetPoint" />
          </mxGeometry>
        </mxCell>
        <mxCell id="CT2oSuwyQ2LbBHEUBvYI-5" value="" style="endArrow=none;html=1;rounded=0;" parent="1" target="gghdeuGKYrQB2vMHr8Xe-62" edge="1">
          <mxGeometry width="50" height="50" relative="1" as="geometry">
            <mxPoint x="375" y="100" as="sourcePoint" />
            <mxPoint x="365" y="90" as="targetPoint" />
          </mxGeometry>
        </mxCell>
        <mxCell id="CT2oSuwyQ2LbBHEUBvYI-6" value="" style="endArrow=none;html=1;rounded=0;entryX=0.861;entryY=0.975;entryDx=0;entryDy=0;entryPerimeter=0;exitX=0.983;exitY=1.05;exitDx=0;exitDy=0;exitPerimeter=0;" parent="1" source="gghdeuGKYrQB2vMHr8Xe-65" target="gghdeuGKYrQB2vMHr8Xe-27" edge="1">
          <mxGeometry width="50" height="50" relative="1" as="geometry">
            <mxPoint x="675" y="230" as="sourcePoint" />
            <mxPoint x="705" y="220" as="targetPoint" />
          </mxGeometry>
        </mxCell>
        <mxCell id="CT2oSuwyQ2LbBHEUBvYI-8" value="" style="endArrow=none;html=1;rounded=0;entryX=0.934;entryY=0.642;entryDx=0;entryDy=0;entryPerimeter=0;exitX=0.625;exitY=0.667;exitDx=0;exitDy=0;exitPerimeter=0;" parent="1" edge="1">
          <mxGeometry width="50" height="50" relative="1" as="geometry">
            <mxPoint x="658" y="215.5" as="sourcePoint" />
            <mxPoint x="670" y="214.5" as="targetPoint" />
          </mxGeometry>
        </mxCell>
        <mxCell id="CT2oSuwyQ2LbBHEUBvYI-9" value="" style="endArrow=none;html=1;rounded=0;entryX=0.934;entryY=0.642;entryDx=0;entryDy=0;entryPerimeter=0;exitX=0.625;exitY=0.667;exitDx=0;exitDy=0;exitPerimeter=0;" parent="1" edge="1">
          <mxGeometry width="50" height="50" relative="1" as="geometry">
            <mxPoint x="658" y="205.5" as="sourcePoint" />
            <mxPoint x="670" y="204.5" as="targetPoint" />
          </mxGeometry>
        </mxCell>
        <mxCell id="CT2oSuwyQ2LbBHEUBvYI-10" value="" style="endArrow=none;html=1;rounded=0;entryX=0.934;entryY=0.642;entryDx=0;entryDy=0;entryPerimeter=0;exitX=0.625;exitY=0.667;exitDx=0;exitDy=0;exitPerimeter=0;" parent="1" edge="1">
          <mxGeometry width="50" height="50" relative="1" as="geometry">
            <mxPoint x="658" y="195.5" as="sourcePoint" />
            <mxPoint x="670" y="194.5" as="targetPoint" />
          </mxGeometry>
        </mxCell>
        <mxCell id="CT2oSuwyQ2LbBHEUBvYI-12" value="" style="endArrow=none;html=1;rounded=0;entryX=0.934;entryY=0.642;entryDx=0;entryDy=0;entryPerimeter=0;exitX=0.625;exitY=0.667;exitDx=0;exitDy=0;exitPerimeter=0;" parent="1" edge="1">
          <mxGeometry width="50" height="50" relative="1" as="geometry">
            <mxPoint x="658" y="225.5" as="sourcePoint" />
            <mxPoint x="670" y="224.5" as="targetPoint" />
          </mxGeometry>
        </mxCell>
        <mxCell id="CT2oSuwyQ2LbBHEUBvYI-13" value="" style="endArrow=none;html=1;rounded=0;entryX=0;entryY=1;entryDx=0;entryDy=0;exitX=-0.067;exitY=0.744;exitDx=0;exitDy=0;exitPerimeter=0;" parent="1" source="gghdeuGKYrQB2vMHr8Xe-69" target="gghdeuGKYrQB2vMHr8Xe-45" edge="1">
          <mxGeometry width="50" height="50" relative="1" as="geometry">
            <mxPoint x="560" y="590" as="sourcePoint" />
            <mxPoint x="610" y="540" as="targetPoint" />
          </mxGeometry>
        </mxCell>
        <mxCell id="CT2oSuwyQ2LbBHEUBvYI-14" value="" style="endArrow=none;html=1;rounded=0;entryX=0.233;entryY=-0.05;entryDx=0;entryDy=0;entryPerimeter=0;" parent="1" edge="1">
          <mxGeometry width="50" height="50" relative="1" as="geometry">
            <mxPoint x="285" y="525.75" as="sourcePoint" />
            <mxPoint x="299.32" y="524.25" as="targetPoint" />
          </mxGeometry>
        </mxCell>
        <mxCell id="CT2oSuwyQ2LbBHEUBvYI-15" value="" style="endArrow=none;html=1;rounded=0;entryX=0.233;entryY=-0.05;entryDx=0;entryDy=0;entryPerimeter=0;" parent="1" edge="1">
          <mxGeometry width="50" height="50" relative="1" as="geometry">
            <mxPoint x="285" y="545.75" as="sourcePoint" />
            <mxPoint x="299.32" y="544.25" as="targetPoint" />
          </mxGeometry>
        </mxCell>
        <mxCell id="CT2oSuwyQ2LbBHEUBvYI-16" value="" style="endArrow=none;html=1;rounded=0;entryX=0.233;entryY=-0.05;entryDx=0;entryDy=0;entryPerimeter=0;" parent="1" edge="1">
          <mxGeometry width="50" height="50" relative="1" as="geometry">
            <mxPoint x="285" y="566.5" as="sourcePoint" />
            <mxPoint x="299.32" y="565" as="targetPoint" />
          </mxGeometry>
        </mxCell>
        <mxCell id="CT2oSuwyQ2LbBHEUBvYI-17" value="" style="endArrow=none;html=1;rounded=0;" parent="1" edge="1">
          <mxGeometry width="50" height="50" relative="1" as="geometry">
            <mxPoint x="802" y="800" as="sourcePoint" />
            <mxPoint x="802" y="720" as="targetPoint" />
          </mxGeometry>
        </mxCell>
        <mxCell id="CT2oSuwyQ2LbBHEUBvYI-18" value="" style="endArrow=none;html=1;rounded=0;" parent="1" edge="1">
          <mxGeometry width="50" height="50" relative="1" as="geometry">
            <mxPoint x="805" y="734.96" as="sourcePoint" />
            <mxPoint x="800" y="735" as="targetPoint" />
          </mxGeometry>
        </mxCell>
        <mxCell id="CT2oSuwyQ2LbBHEUBvYI-19" value="" style="endArrow=none;html=1;rounded=0;" parent="1" edge="1">
          <mxGeometry width="50" height="50" relative="1" as="geometry">
            <mxPoint x="805" y="752.96" as="sourcePoint" />
            <mxPoint x="800" y="753" as="targetPoint" />
          </mxGeometry>
        </mxCell>
        <mxCell id="CT2oSuwyQ2LbBHEUBvYI-20" value="" style="endArrow=none;html=1;rounded=0;" parent="1" edge="1">
          <mxGeometry width="50" height="50" relative="1" as="geometry">
            <mxPoint x="805" y="774.99" as="sourcePoint" />
            <mxPoint x="800" y="775" as="targetPoint" />
          </mxGeometry>
        </mxCell>
        <mxCell id="CT2oSuwyQ2LbBHEUBvYI-21" value="" style="endArrow=none;html=1;rounded=0;" parent="1" edge="1">
          <mxGeometry width="50" height="50" relative="1" as="geometry">
            <mxPoint x="805" y="794.96" as="sourcePoint" />
            <mxPoint x="800" y="795" as="targetPoint" />
          </mxGeometry>
        </mxCell>
        <mxCell id="CT2oSuwyQ2LbBHEUBvYI-22" value="" style="endArrow=none;html=1;rounded=0;" parent="1" edge="1">
          <mxGeometry width="50" height="50" relative="1" as="geometry">
            <mxPoint x="815" y="430" as="sourcePoint" />
            <mxPoint x="935" y="430" as="targetPoint" />
          </mxGeometry>
        </mxCell>
        <mxCell id="CT2oSuwyQ2LbBHEUBvYI-23" value="" style="endArrow=none;html=1;rounded=0;" parent="1" edge="1">
          <mxGeometry width="50" height="50" relative="1" as="geometry">
            <mxPoint x="816.95" y="430" as="sourcePoint" />
            <mxPoint x="816.95" y="420" as="targetPoint" />
          </mxGeometry>
        </mxCell>
        <mxCell id="CT2oSuwyQ2LbBHEUBvYI-24" value="" style="endArrow=none;html=1;rounded=0;" parent="1" edge="1">
          <mxGeometry width="50" height="50" relative="1" as="geometry">
            <mxPoint x="834.9" y="430" as="sourcePoint" />
            <mxPoint x="834.9" y="420" as="targetPoint" />
          </mxGeometry>
        </mxCell>
        <mxCell id="CT2oSuwyQ2LbBHEUBvYI-25" value="" style="endArrow=none;html=1;rounded=0;" parent="1" edge="1">
          <mxGeometry width="50" height="50" relative="1" as="geometry">
            <mxPoint x="854.9" y="430" as="sourcePoint" />
            <mxPoint x="854.9" y="420" as="targetPoint" />
          </mxGeometry>
        </mxCell>
        <mxCell id="CT2oSuwyQ2LbBHEUBvYI-26" value="" style="endArrow=none;html=1;rounded=0;" parent="1" edge="1">
          <mxGeometry width="50" height="50" relative="1" as="geometry">
            <mxPoint x="884.95" y="430" as="sourcePoint" />
            <mxPoint x="884.95" y="420" as="targetPoint" />
          </mxGeometry>
        </mxCell>
        <mxCell id="CT2oSuwyQ2LbBHEUBvYI-27" value="" style="endArrow=none;html=1;rounded=0;" parent="1" edge="1">
          <mxGeometry width="50" height="50" relative="1" as="geometry">
            <mxPoint x="934.95" y="430" as="sourcePoint" />
            <mxPoint x="934.95" y="420" as="targetPoint" />
          </mxGeometry>
        </mxCell>
        <mxCell id="CT2oSuwyQ2LbBHEUBvYI-28" value="" style="endArrow=none;html=1;rounded=0;exitX=0.541;exitY=-0.021;exitDx=0;exitDy=0;exitPerimeter=0;" parent="1" source="gghdeuGKYrQB2vMHr8Xe-22" edge="1">
          <mxGeometry width="50" height="50" relative="1" as="geometry">
            <mxPoint x="860" y="440" as="sourcePoint" />
            <mxPoint x="860" y="430" as="targetPoint" />
          </mxGeometry>
        </mxCell>
        <mxCell id="4ovQLXkB2I2k8K6dp4F0-1" value="1" style="text;html=1;align=center;verticalAlign=middle;resizable=0;points=[];autosize=1;strokeColor=none;fillColor=none;" vertex="1" parent="1">
          <mxGeometry x="825" y="510" width="30" height="30" as="geometry" />
        </mxCell>
        <mxCell id="4ovQLXkB2I2k8K6dp4F0-2" value="0&lt;span style=&quot;background-color: transparent; color: light-dark(rgb(0, 0, 0), rgb(255, 255, 255));&quot;&gt;..*&lt;/span&gt;" style="text;html=1;align=center;verticalAlign=middle;resizable=0;points=[];autosize=1;strokeColor=none;fillColor=none;" vertex="1" parent="1">
          <mxGeometry x="815" y="630" width="40" height="30" as="geometry" />
        </mxCell>
        <mxCell id="4ovQLXkB2I2k8K6dp4F0-8" value="&lt;font style=&quot;font-size: 8px;&quot;&gt;id&lt;/font&gt;" style="text;html=1;align=center;verticalAlign=middle;resizable=0;points=[];autosize=1;strokeColor=none;fillColor=none;" vertex="1" parent="1">
          <mxGeometry x="545" y="510" width="30" height="30" as="geometry" />
        </mxCell>
        <mxCell id="4ovQLXkB2I2k8K6dp4F0-10" value="" style="endArrow=none;html=1;rounded=0;entryX=0;entryY=1;entryDx=0;entryDy=0;" edge="1" parent="1">
          <mxGeometry width="50" height="50" relative="1" as="geometry">
            <mxPoint x="540" y="550" as="sourcePoint" />
            <mxPoint x="540" y="510" as="targetPoint" />
          </mxGeometry>
        </mxCell>
        <mxCell id="4ovQLXkB2I2k8K6dp4F0-11" value="" style="endArrow=none;html=1;rounded=0;entryX=0.233;entryY=-0.05;entryDx=0;entryDy=0;entryPerimeter=0;" edge="1" parent="1">
          <mxGeometry width="50" height="50" relative="1" as="geometry">
            <mxPoint x="540" y="525.75" as="sourcePoint" />
            <mxPoint x="554.3199999999999" y="524.25" as="targetPoint" />
          </mxGeometry>
        </mxCell>
        <mxCell id="4ovQLXkB2I2k8K6dp4F0-12" value="" style="endArrow=none;html=1;rounded=0;entryX=0.233;entryY=-0.05;entryDx=0;entryDy=0;entryPerimeter=0;" edge="1" parent="1">
          <mxGeometry width="50" height="50" relative="1" as="geometry">
            <mxPoint x="540" y="550" as="sourcePoint" />
            <mxPoint x="557.16" y="544.25" as="targetPoint" />
          </mxGeometry>
        </mxCell>
        <mxCell id="4ovQLXkB2I2k8K6dp4F0-14" value="&lt;span style=&quot;font-size: 8px;&quot;&gt;quantidade&lt;/span&gt;" style="text;html=1;align=center;verticalAlign=middle;resizable=0;points=[];autosize=1;strokeColor=none;fillColor=none;" vertex="1" parent="1">
          <mxGeometry x="405" y="365" width="60" height="30" as="geometry" />
        </mxCell>
        <mxCell id="4ovQLXkB2I2k8K6dp4F0-15" value="&lt;font style=&quot;font-size: 8px;&quot;&gt;id&lt;/font&gt;" style="text;html=1;align=center;verticalAlign=middle;resizable=0;points=[];autosize=1;strokeColor=none;fillColor=none;" vertex="1" parent="1">
          <mxGeometry x="405" y="345" width="30" height="30" as="geometry" />
        </mxCell>
        <mxCell id="4ovQLXkB2I2k8K6dp4F0-16" value="" style="endArrow=none;html=1;rounded=0;entryX=0;entryY=1;entryDx=0;entryDy=0;" edge="1" parent="1">
          <mxGeometry width="50" height="50" relative="1" as="geometry">
            <mxPoint x="400" y="385" as="sourcePoint" />
            <mxPoint x="400" y="345" as="targetPoint" />
          </mxGeometry>
        </mxCell>
        <mxCell id="4ovQLXkB2I2k8K6dp4F0-17" value="" style="endArrow=none;html=1;rounded=0;entryX=0.233;entryY=-0.05;entryDx=0;entryDy=0;entryPerimeter=0;" edge="1" parent="1">
          <mxGeometry width="50" height="50" relative="1" as="geometry">
            <mxPoint x="400" y="360.75" as="sourcePoint" />
            <mxPoint x="414.31999999999994" y="359.25" as="targetPoint" />
          </mxGeometry>
        </mxCell>
        <mxCell id="4ovQLXkB2I2k8K6dp4F0-18" value="" style="endArrow=none;html=1;rounded=0;entryX=0.233;entryY=-0.05;entryDx=0;entryDy=0;entryPerimeter=0;" edge="1" parent="1">
          <mxGeometry width="50" height="50" relative="1" as="geometry">
            <mxPoint x="400" y="385" as="sourcePoint" />
            <mxPoint x="417.15999999999997" y="379.25" as="targetPoint" />
          </mxGeometry>
        </mxCell>
      </root>
    </mxGraphModel>
  </diagram>
</mxfile>
